<?xml version="1.0" encoding="utf-8"?>
<!-- Generator: Adobe Illustrator 23.0.3, SVG Export Plug-In . SVG Version: 6.00 Build 0)  -->
<svg version="1.1" id="Слой_1" xmlns="http://www.w3.org/2000/svg" xmlns:xlink="http://www.w3.org/1999/xlink" x="0px" y="0px"
	 viewBox="0 0 20 20" style="enable-background:new 0 0 20 20;" xml:space="preserve">
<style type="text/css">
	.st0{fill:#FFFFFF;}
</style>
<path class="st0" d="M10,0C4.48,0,0,4.48,0,10c0,5.52,4.48,10,10,10c5.52,0,10-4.48,10-10C20,4.48,15.52,0,10,0z M12.51,8.78
	l-0.13,1.7h-1.75v5.92H8.43v-5.92H7.25v-1.7h1.18V8.25V7.73V7.64c0-0.5,0.01-1.28,0.38-1.76c0.39-0.51,0.92-0.86,1.83-0.86
	c1.49,0,2.11,0.21,2.11,0.21l-0.29,1.75c0,0-0.49-0.14-0.95-0.14c-0.46,0-0.87,0.16-0.87,0.62v0.19v0.61v0.53H12.51z"/>
</svg>
