<?xml version="1.0" encoding="utf-8"?>
<!-- Generator: Adobe Illustrator 23.0.3, SVG Export Plug-In . SVG Version: 6.00 Build 0)  -->
<svg version="1.1" id="Слой_1" xmlns="http://www.w3.org/2000/svg" xmlns:xlink="http://www.w3.org/1999/xlink" x="0px" y="0px"
	 viewBox="0 0 20 20" style="enable-background:new 0 0 20 20;" xml:space="preserve">
<style type="text/css">
	.st0{fill:#FFFFFF;}
</style>
<g>
	<path class="st0" d="M10,0C4.48,0,0,4.48,0,10c0,5.52,4.48,10,10,10c5.52,0,10-4.48,10-10C20,4.48,15.52,0,10,0z M9.84,7.66
		c0,0.79-0.44,1.47-1.06,1.96c-0.6,0.47-0.72,0.67-0.72,1.07c0,0.34,0.65,0.93,0.99,1.17c0.99,0.7,1.31,1.35,1.31,2.44
		c0,1.35-1.31,2.7-3.68,2.7c-2.08,0-3.84-0.85-3.84-2.2c0-1.37,1.6-2.7,3.68-2.7c0.23,0,0.43-0.01,0.65-0.01
		c-0.29-0.28-0.51-0.62-0.51-1.04c0-0.25,0.08-0.49,0.19-0.7c-0.11,0.01-0.23,0.01-0.35,0.01c-1.71,0-2.85-1.22-2.85-2.72
		c0-1.47,1.58-2.75,3.26-2.75c0.94,0,3.75,0,3.75,0L9.82,5.5H8.63C9.42,5.8,9.84,6.72,9.84,7.66z M14.74,7.92v2.42h-0.61V7.92H11.7
		V7.31h2.42V4.89h0.61v2.42h2.42v0.61H14.74z"/>
	<path class="st0" d="M6.92,12.44c-1.44-0.02-2.73,0.88-2.73,1.95c0,1.09,1.04,2,2.48,2c2.02,0,2.73-0.85,2.73-1.95
		c0-0.13-0.02-0.26-0.05-0.39c-0.16-0.62-0.72-0.93-1.5-1.47C7.57,12.5,7.25,12.44,6.92,12.44z"/>
	<path class="st0" d="M6.44,5.42C5.48,5.39,4.83,6.36,5,7.63C5.16,8.9,6.08,9.95,7.05,9.98C8.01,10.01,8.66,9,8.49,7.73
		C8.33,6.47,7.41,5.45,6.44,5.42z"/>
</g>
</svg>
