<?xml version="1.0" encoding="utf-8"?>
<!-- Generator: Adobe Illustrator 23.0.3, SVG Export Plug-In . SVG Version: 6.00 Build 0)  -->
<svg version="1.1" id="Слой_1" xmlns="http://www.w3.org/2000/svg" xmlns:xlink="http://www.w3.org/1999/xlink" x="0px" y="0px"
	 viewBox="0 0 20 20" style="enable-background:new 0 0 20 20;" xml:space="preserve">
<style type="text/css">
	.st0{fill:#FFFFFF;}
</style>
<g>
	<path class="st0" d="M10,9.09c0.92,0,1.66-0.74,1.66-1.66c0-0.92-0.74-1.66-1.66-1.66c-0.92,0-1.66,0.74-1.66,1.66
		C8.34,8.35,9.08,9.09,10,9.09z"/>
	<path class="st0" d="M10,0C4.48,0,0,4.48,0,10c0,5.52,4.48,10,10,10c5.52,0,10-4.48,10-10C20,4.48,15.52,0,10,0z M10,4.06
		c1.86,0,3.37,1.51,3.37,3.37c0,1.86-1.51,3.37-3.37,3.37c-1.86,0-3.37-1.51-3.37-3.37C6.63,5.57,8.14,4.06,10,4.06z M13,12.75
		c-0.72,0.46-1.7,0.63-2.34,0.7l0.54,0.54l1.99,1.99c0.3,0.3,0.3,0.79,0,1.09l-0.09,0.09c-0.3,0.3-0.79,0.3-1.09,0
		c-0.5-0.5-1.23-1.23-1.99-1.99l-1.99,1.99c-0.15,0.15-0.35,0.23-0.55,0.23h0c-0.2,0-0.39-0.08-0.55-0.23l-0.09-0.09
		c-0.3-0.3-0.3-0.79,0-1.09c0.51-0.51,1.23-1.23,1.99-1.99l0.54-0.54c-0.64-0.06-1.64-0.24-2.36-0.7c-0.85-0.54-1.22-0.87-0.89-1.53
		c0.19-0.38,0.72-0.7,1.42-0.15C8.48,11.82,10,11.82,10,11.82s1.52,0,2.47-0.75c0.7-0.55,1.23-0.23,1.42,0.15
		C14.22,11.88,13.85,12.21,13,12.75z"/>
</g>
</svg>
