<?xml version="1.0" encoding="utf-8"?>
<!-- Generator: Adobe Illustrator 23.0.3, SVG Export Plug-In . SVG Version: 6.00 Build 0)  -->
<svg version="1.1" id="Слой_1" xmlns="http://www.w3.org/2000/svg" xmlns:xlink="http://www.w3.org/1999/xlink" x="0px" y="0px"
	 viewBox="0 0 20 20" style="enable-background:new 0 0 20 20;" xml:space="preserve">
<style type="text/css">
	.st0{fill:#FFFFFF;}
</style>
<path class="st0" d="M10,0C4.48,0,0,4.48,0,10c0,5.52,4.48,10,10,10c5.52,0,10-4.48,10-10C20,4.48,15.52,0,10,0z M14.75,8.36
	c0,0.11,0.01,0.21,0.01,0.32c0,3.24-2.47,6.98-6.98,6.98c-1.38,0-2.67-0.41-3.76-1.1c0.19,0.02,0.39,0.03,0.58,0.03
	c1.15,0,2.21-0.39,3.05-1.05c-1.07-0.02-1.98-0.73-2.29-1.7c0.15,0.03,0.3,0.04,0.46,0.04c0.22,0,0.44-0.03,0.65-0.09
	c-1.12-0.23-1.97-1.22-1.97-2.4c0-0.01,0-0.02,0-0.03c0.33,0.18,0.71,0.29,1.11,0.31C4.96,9.23,4.52,8.48,4.52,7.63
	c0-0.45,0.12-0.87,0.33-1.23c1.21,1.48,3.02,2.46,5.06,2.56C9.87,8.78,9.85,8.59,9.85,8.4c0-1.35,1.1-2.45,2.45-2.45
	c0.71,0,1.34,0.3,1.79,0.77c0.56-0.11,1.08-0.31,1.56-0.6c-0.18,0.57-0.57,1.05-1.08,1.36c0.5-0.06,0.97-0.19,1.41-0.39
	C15.65,7.59,15.23,8.02,14.75,8.36z"/>
</svg>
