<?xml version="1.0" encoding="utf-8"?>
<!-- Generator: Adobe Illustrator 23.0.3, SVG Export Plug-In . SVG Version: 6.00 Build 0)  -->
<svg version="1.1" id="Слой_1" xmlns="http://www.w3.org/2000/svg" xmlns:xlink="http://www.w3.org/1999/xlink" x="0px" y="0px"
	 viewBox="0 0 20 20" style="enable-background:new 0 0 20 20;" xml:space="preserve">
<style type="text/css">
	.st0{fill:#FFFFFF;}
</style>
<g>
	<path class="st0" d="M8.52,11.19l0,2.43c1.25,0,2.8,0.21,2.83-1.22C11.38,10.92,9.76,11.19,8.52,11.19z"/>
	<path class="st0" d="M8.52,9.48c1.14,0,2.22,0.15,2.22-1.09c0-1.15-1.22-0.96-2.22-0.96l0,0.78L8.52,9.48z"/>
	<path class="st0" d="M10,0C4.48,0,0,4.48,0,10c0,5.52,4.48,10,10,10c5.52,0,10-4.48,10-10C20,4.48,15.52,0,10,0z M10.33,15.42H6.09
		l0.02-9.78h4.44c1.46,0,2.71,0.72,2.7,2.16c0,1.21-0.44,1.68-1.34,2.21c0.08,0.06,0.59,0.22,0.77,0.3
		c0.28,0.14,0.44,0.27,0.62,0.46c0.51,0.52,0.61,0.99,0.61,1.81C13.91,14.47,12.08,15.42,10.33,15.42z"/>
</g>
</svg>
